<?xml version="1.0" encoding="utf-8"?>
<!-- Generator: Adobe Illustrator 21.1.0, SVG Export Plug-In . SVG Version: 6.00 Build 0)  -->
<svg version="1.1" id="Calque_1" xmlns="http://www.w3.org/2000/svg" xmlns:xlink="http://www.w3.org/1999/xlink" x="0px" y="0px"
	 viewBox="0 0 432 432" style="enable-background:new 0 0 432 432;" xml:space="preserve">
<style type="text/css">
	.st0{fill:#AE3034;}
	.st1{fill:#3E904D;}
	.st2{fill:#F7EB5B;}
	.st3{fill:#221F20;}
	.st4{fill:#BC9A72;}
	.st5{fill:#FFFFFF;}
	.st6{fill:#E9963E;}
	.st7{fill:#EFB156;}
	.st8{fill:#5EB057;}
	.st9{fill:#A27D56;}
	.st10{fill:#BD8346;}
	.st11{fill:#DD658D;}
	.st12{fill:#404041;}
	.st13{fill:#81BF8E;}
	.st14{fill:#ED7E87;}
	.st15{fill:#B0202B;}
	.st16{fill:#BA9453;}
	.st17{fill:#B99352;}
	.st18{fill:#45A49C;}
	.st19{fill:#59B178;}
	.st20{fill:#C9A25F;}
	.st21{fill:#BCBDBF;}
	.st22{fill:#C7345D;}
	.st23{fill:#2E3192;}
	.st24{fill:#8CC63F;}
	.st25{fill:#22B573;}
	.st26{fill:#333333;}
	.st27{fill:#B1A097;}
	.st28{fill:#574B43;}
	.st29{fill:#85328A;}
	.st30{fill:#53A7DB;}
	.st31{fill:#912D61;}
	.st32{fill:#835F41;}
	.st33{fill:#929496;}
	.st34{fill:#808080;}
	.st35{fill:#6F4E2F;}
	.st36{fill:#A6A8AA;}
	.st37{fill:#DF643A;}
	.st38{fill:#98C355;}
	.st39{fill:#D35998;}
	.st40{fill:#6F665A;}
	.st41{fill:#BFB49D;}
	.st42{fill:#AE82B3;}
	.st43{fill:#B3B3B3;}
	.st44{fill:#5E328B;}
	.st45{fill:#DA404D;}
	.st46{fill:#A994C1;}
	.st47{fill:#8B575B;}
	.st48{fill:#C9C0AF;}
	.st49{fill:#A67C52;}
	.st50{fill:#86A391;}
	.st51{fill:#6595A9;}
	.st52{fill:#483E49;}
	.st53{fill:#F6BA00;}
	.st54{fill:#FC8080;}
	.st55{fill:#1A1A1A;}
	.st56{fill:#749FA8;}
	.st57{fill:#ABC337;}
	.st58{fill:#F67E20;}
	.st59{fill:#52A9B2;}
	.st60{fill:#925A8B;}
	.st61{fill:#DD8383;}
	.st62{fill:#929C3B;}
	.st63{fill:#4D4D4D;}
	.st64{fill:#C69C6D;}
	.st65{fill:#DBB753;}
	.st66{fill:#9EB9B4;}
	.st67{fill:#F2F2F2;}
	.st68{fill:#E2C87F;}
	.st69{fill:#E8BDC4;}
	.st70{fill:#D86D29;}
	.st71{fill:#E0CDAD;}
	.st72{fill:#E6E6E6;}
	.st73{fill:#CCD6CE;}
	.st74{fill:#9FD3C7;}
	.st75{fill-rule:evenodd;clip-rule:evenodd;}
	.st76{fill:#E5BE51;}
	.st77{fill:#B3A693;}
	.st78{fill:#717370;}
	.st79{fill:#9FB14D;}
	.st80{fill:#736357;}
	.st81{fill:#51642D;}
	.st82{fill:#743315;}
	.st83{fill:#0071BC;}
	.st84{fill:#9C1B20;}
	.st85{fill:#009245;}
	.st86{fill:#F6E6CC;}
	.st87{fill:#84CBCB;}
	.st88{fill:#7D9B39;}
	.st89{fill:#3C4E5C;}
	.st90{fill:#998675;}
	.st91{fill:#C7B299;}
	.st92{fill:#9B2F10;}
	.st93{fill:#E7A136;}
	.st94{fill:#978E43;}
	.st95{fill:#7D5E18;}
	.st96{fill:#F2C545;}
	.st97{fill:#E07D28;}
	.st98{fill:#E0D2BE;}
	.st99{fill:#C4A18D;}
	.st100{fill:#BCBD84;}
	.st101{fill:#5F645E;}
	.st102{fill:#CAC2C2;}
	.st103{fill:#959736;}
	.st104{fill:#B0D24A;}
	.st105{fill:#754C24;}
	.st106{fill:#603813;}
	.st107{fill:#8C4A33;}
	.st108{fill:#0B493A;}
	.st109{fill:#C17953;}
	.st110{fill:#F7C64D;}
	.st111{fill:#005371;}
	.st112{fill:#D3E2DC;}
	.st113{fill:#3E8A64;}
	.st114{fill:#299798;}
	.st115{fill:#731115;}
	.st116{fill:#4F4544;}
	.st117{fill:#4C6047;}
	.st118{fill:#4C301C;}
	.st119{fill:#867274;}
	.st120{fill:#C13F47;}
	.st121{fill:#BC8AA8;}
	.st122{fill:#634E42;}
	.st123{fill:#E1B8D7;}
	.st124{fill:#6D866B;}
	.st125{fill:#422918;}
	.st126{fill:#925F36;}
	.st127{fill:#1D1D1B;}
	.st128{fill:#00A099;}
	.st129{fill:#F8B133;}
	.st130{fill:#006633;}
	.st131{fill:#683B11;}
	.st132{fill:#B17F49;}
	.st133{fill:#A3897A;}
	.st134{fill:#E488B5;}
	.st135{fill:#93C01F;}
	.st136{fill:#EDE287;}
	.st137{fill:#E9CB9A;}
	.st138{fill:#EAB8CC;}
	.st139{fill:#7E4E24;}
	.st140{fill:#E5332A;}
	.st141{fill:#F29100;}
</style>
<g>
	<g>
		<path class="st119" d="M340.6,93c-1.7-25.6-22.5-27.3-33.3-10.3c-5.6,8.8-9.2,16.8-10,28.1C294.1,155.9,343.9,142,340.6,93z
			 M315.2,95.7c3,3,2.4,8.9,3,9.8c9.6-12.3,13.2-5.4,10.9-0.9c-3.8,7.7-11.3,18.2-16.7,10.7C304.1,103.6,309.4,90,315.2,95.7z"/>
		<path class="st119" d="M339.8,135.7c-18.5,44.7,22.8,59.6,36,16.7C386.6,117.6,354.3,100.8,339.8,135.7z M346.6,147.7
			c-1.4-5.4,3.6-10.4,9.3,1c4.8-10.4,8.6-7.2,9.5-5C368.5,151,354,175.4,346.6,147.7z"/>
		<path class="st119" d="M281.6,71.4c-12.1-15.4-35.2,1.9-32.9,35.6C252.3,159.3,308.1,105.2,281.6,71.4z M265.2,96.7
			c1.6-11.3,8.3-10.8,9.4-5c1,5.3-1.4,16.6-2.8,19c-4.8,8.2-17.4-9-17.3-15.7C254.5,90.8,258.9,87.4,265.2,96.7z"/>
		<path class="st119" d="M245.6,137.3c-2.2-44.1-50.5-23.7-34.8,26.8C219,190.6,247.5,175.3,245.6,137.3z M224.5,161.8
			c-16.3-16.5-10.3-34.7,0.7-16.2c0.4-1.8,0.8-3.5,1.2-5.1c2.4-8.5,7.4-5.7,7.8-1.6C235,145.8,232.2,169.5,224.5,161.8z"/>
		<path class="st119" d="M330.7,181.8c-13.4-11.7-7.5-5.2-16.2-19.5c-5.1-8.4-13.4-14-23.1-14c-10.5,0-16.1,7.9-22.2,16.1
			c-7.5,10-11,8.2-25.2,21.5c-10.9,10.3-8.3,26.3-1.6,34.2c9,10.6,21.5,4.3,29.9,1.5c13.9-4.7,21.5,8.1,40.5,8.4
			C338.7,230.5,350.8,199.4,330.7,181.8z"/>
	</g>
	<g>
		<path class="st119" d="M154.1,207.1c-13.1-22.1-32.4-14.2-34.3,5.8c-1,10.3-0.7,19.1,3.7,29.6C141,284.2,179.1,249.3,154.1,207.1z
			 M132.6,221c4,1.3,6.1,6.8,7.1,7.4c3-15.4,9.3-10.7,9.4-5.7c0.1,8.6-1.8,21.4-10.1,17.1C126.3,233.1,124.9,218.5,132.6,221z"/>
		<path class="st119" d="M212.3,244.2c-6.1-35.9-42.5-36.3-39.7,1.4C176.3,293.8,219.9,288.5,212.3,244.2z M192.9,249.9
			c-0.4-11.4,4.4-10.3,6.2-8.8c6,5.1,4,33.4-15,12C180.4,249,182.6,242.3,192.9,249.9z"/>
		<path class="st119" d="M91.6,214.5c-17.8-8.3-30.6,17.6-13.3,46.6C105.2,306.1,130.6,232.6,91.6,214.5z M78.1,247.7
			c-1.8-3.7,0.5-8.7,10.3-3.3c-3.7-10.8,2.5-13.4,6.1-8.7c3.3,4.3,6.2,15.5,6.1,18.3C100,263.4,81,253.7,78.1,247.7z"/>
		<path class="st119" d="M70.3,329.2c19.2,19.9,37.8-6.6,19-39.7C67.5,251.2,33.5,291.1,70.3,329.2z M81.5,320.8
			c-22-7.4-24.8-26.3-6.7-14.8c-0.4-1.8-0.9-3.4-1.2-5.2c-1.7-8.7,4-8.4,6.2-4.9C83.7,301.8,91.9,324.3,81.5,320.8z"/>
		<path class="st119" d="M185.2,290.8c-17.3-4.4-9.1-1.2-23.3-10.1c-8.4-5.2-18.2-6.4-26.9-2c-9.3,4.7-10.8,14.3-12.5,24.3
			c-2.2,12.3-6.1,12.3-12.8,30.6c-5.1,14.1,4.5,27.2,14,31.2c12.8,5.4,21.1-5.8,27.4-12.2c10.3-10.5,22.9-2.4,39.9-10.8
			C214.5,330.6,211.2,297.4,185.2,290.8z"/>
	</g>
</g>
</svg>
